<?xml version="1.0" encoding="UTF-8"?>
<svg width="114px" height="162px" viewBox="0 0 114 162" version="1.1" xmlns="http://www.w3.org/2000/svg" xmlns:xlink="http://www.w3.org/1999/xlink">
    <!-- Generator: Sketch 49.3 (51167) - http://www.bohemiancoding.com/sketch -->
    <title>Fill-1</title>
    <desc>Created with Sketch.</desc>
    <defs></defs>
    <g id="Page-1" stroke="none" stroke-width="1" fill="none" fill-rule="evenodd" stroke-linecap="round" stroke-linejoin="round">
        <g id="r_black" transform="translate(2.000000, 2.000000)" stroke="#000000" stroke-width="4">
            <path d="M41.048,8.234 L54.702,0.351 L68.356,8.234 L82.01,16.118 L95.663,24 L109.318,31.883 L95.663,39.766 L82.01,47.649 L68.356,39.766 L54.702,31.883 L41.048,39.766 L27.395,47.649 L13.741,39.766 L0.087,31.883 L13.741,24 L27.395,16.118 L41.048,8.234 Z M54.692,110.713 L54.692,94.947 L68.346,102.83 L82,110.713 L81.99,110.717 L81.99,126.478 L81.99,142.245 L68.336,134.362 L54.681,126.478 L54.692,126.473 L54.692,110.713 Z M82,142.245 L82,110.713 L95.653,118.596 L109.307,126.478 L95.653,134.362 L82,142.245 Z M95.653,134.362 L109.307,126.479 L109.307,142.245 L109.307,158.011 L95.653,150.128 L82,142.245 L95.653,134.362 Z M0.087,158.011 L0.087,31.883 L13.741,39.766 L27.395,47.649 L27.395,63.415 L27.395,79.182 L27.395,94.947 L27.395,110.713 L27.395,126.478 L27.395,142.245 L13.741,150.128 L0.087,158.011 Z M82.005,79.184 L82.01,79.182 L82.01,79.187 L95.653,87.064 L109.307,94.947 L95.653,102.83 L82.01,110.707 L82.01,110.713 L82.005,110.71 L82,110.713 L82,110.707 L68.356,102.83 L54.702,94.947 L68.356,87.064 L82,79.187 L82,79.182 L82.005,79.184 Z M95.668,39.766 L109.322,31.883 L109.322,47.649 L109.322,63.415 L109.322,79.182 L109.322,94.947 L95.668,87.064 L82.014,79.182 L82.014,47.649 L95.668,39.766 Z" id="Fill-1"></path>
        </g>
    </g>
</svg>