<?xml version="1.0" standalone="no"?>
<!DOCTYPE svg PUBLIC "-//W3C//DTD SVG 20010904//EN"
 "http://www.w3.org/TR/2001/REC-SVG-20010904/DTD/svg10.dtd">
<svg version="1.0" xmlns="http://www.w3.org/2000/svg"
 width="1296.000000pt" height="1296.000000pt" viewBox="0 0 1296.000000 1296.000000"
 preserveAspectRatio="xMidYMid meet">
<metadata>
Created by potrace 1.11, written by Peter Selinger 2001-2013
</metadata>
<g transform="translate(0.000000,1296.000000) scale(0.100000,-0.100000)"
fill="#000000" stroke="none">
<path d="M6395 12918 c-16 -6 -54 -26 -82 -44 -29 -19 -53 -30 -53 -26 0 4 -4
2 -8 -4 -8 -12 -221 -134 -234 -134 -4 0 -8 -4 -8 -9 0 -5 -10 -13 -22 -17
-13 -4 -25 -9 -28 -13 -8 -10 -82 -51 -112 -62 -16 -6 -28 -15 -28 -20 0 -5
-4 -9 -10 -9 -5 0 -39 -18 -75 -40 -36 -22 -67 -40 -70 -40 -2 0 -37 -20 -77
-43 -197 -118 -337 -197 -347 -197 -6 0 -11 -4 -11 -8 0 -4 -19 -18 -42 -30
-24 -12 -65 -35 -93 -52 -27 -16 -63 -37 -80 -45 -16 -8 -37 -19 -45 -25 -8
-5 -53 -32 -100 -59 -47 -27 -139 -80 -205 -119 -66 -38 -136 -79 -155 -89
-120 -68 -307 -177 -317 -186 -7 -5 -13 -6 -13 -1 0 5 -4 4 -8 -2 -6 -8 -123
-79 -292 -175 -14 -8 -33 -20 -42 -28 -10 -8 -18 -10 -18 -6 0 4 -8 1 -17 -7
-10 -8 -49 -33 -88 -54 -38 -21 -77 -43 -87 -49 -81 -48 -155 -91 -163 -94 -5
-2 -18 -11 -29 -20 -10 -9 -21 -16 -25 -15 -5 1 -48 -22 -96 -54 -11 -6 -27
-15 -35 -19 -8 -4 -86 -49 -173 -100 -88 -51 -161 -93 -164 -93 -3 0 -17 -8
-31 -19 -15 -10 -47 -29 -72 -43 -25 -14 -61 -34 -80 -45 -19 -11 -69 -40
-110 -63 -41 -23 -95 -55 -120 -70 -25 -15 -65 -39 -90 -52 -161 -88 -440
-254 -463 -276 -15 -15 -33 -45 -40 -68 -9 -33 -12 -1157 -11 -5105 0 -4673 2
-5066 17 -5095 17 -33 70 -83 90 -85 7 -1 32 -3 57 -4 50 -2 33 -10 308 149
101 58 188 106 193 106 5 0 9 5 9 10 0 6 4 10 9 10 4 0 85 44 178 98 94 55
177 102 184 106 8 3 28 14 44 24 45 28 293 171 345 200 25 14 50 28 55 32 6 5
37 23 70 41 33 18 62 35 65 38 3 3 23 16 45 28 22 11 54 29 72 40 154 89 198
113 205 113 4 0 8 5 8 10 0 6 6 10 14 10 8 0 22 7 30 16 9 8 16 13 16 10 0 -3
25 10 55 29 30 19 56 35 59 35 3 0 39 20 79 45 41 25 80 45 86 45 6 0 11 4 11
9 0 5 14 14 31 22 17 7 57 31 88 54 44 32 60 51 69 82 9 31 12 895 12 3787 l0
3746 33 15 c17 9 50 27 72 40 22 13 56 32 75 41 19 10 37 21 40 24 4 5 152 92
270 158 25 14 59 33 75 42 17 10 154 89 305 177 152 87 282 162 290 166 8 4
38 21 65 38 28 16 58 33 68 36 9 3 17 9 17 14 0 5 4 9 9 9 5 0 67 34 136 75
70 41 129 75 131 75 3 0 93 52 154 90 8 5 38 21 65 36 28 14 57 31 65 38 17
13 35 23 109 62 43 22 57 25 70 16 9 -7 22 -15 30 -19 8 -4 102 -57 208 -120
107 -62 196 -113 198 -113 3 0 306 -176 405 -235 30 -18 71 -42 90 -52 19 -11
62 -35 95 -53 33 -19 62 -36 65 -39 3 -4 30 -19 60 -35 30 -16 63 -36 73 -44
9 -8 17 -11 17 -7 0 4 8 1 18 -7 26 -22 159 -98 171 -98 6 0 11 -4 11 -9 0 -5
8 -11 18 -15 18 -6 43 -20 130 -73 29 -18 54 -33 56 -33 11 0 333 -190 345
-204 14 -14 22 -66 11 -66 -7 0 -5 -48 2 -55 3 -3 2 -22 -2 -41 -4 -19 -5 -36
-1 -39 8 -5 5 -71 -4 -85 -3 -6 -2 -10 3 -10 6 0 7 -14 2 -35 -4 -19 -5 -35
-1 -35 9 0 7 -42 -2 -57 -4 -7 -4 -14 1 -17 9 -6 8 -59 -3 -75 -3 -6 -2 -11 2
-11 10 0 10 -41 0 -57 -4 -7 -4 -14 1 -17 9 -6 8 -59 -3 -75 -3 -6 -2 -11 2
-11 10 0 10 -41 0 -57 -4 -7 -4 -14 1 -17 9 -6 8 -59 -3 -75 -3 -6 -2 -11 2
-11 10 0 10 -41 0 -57 -4 -7 -4 -14 1 -17 9 -6 8 -59 -3 -75 -3 -6 -2 -11 2
-11 10 0 10 -41 0 -57 -4 -7 -4 -14 1 -17 9 -6 8 -59 -3 -75 -3 -6 -2 -11 2
-11 10 0 10 -41 0 -57 -4 -7 -4 -14 1 -17 9 -6 8 -59 -3 -75 -3 -6 -2 -11 2
-11 10 0 10 -41 0 -57 -4 -7 -4 -14 1 -17 9 -6 8 -59 -3 -75 -3 -6 -2 -11 2
-11 10 0 10 -41 0 -57 -4 -7 -4 -14 1 -17 9 -6 8 -59 -3 -75 -3 -6 -2 -11 2
-11 10 0 10 -41 0 -57 -4 -7 -3 -14 2 -17 5 -3 5 -21 1 -41 -4 -19 -5 -37 -1
-40 8 -5 5 -71 -4 -85 -3 -6 -2 -10 3 -10 6 0 7 -14 2 -35 -4 -19 -5 -35 -1
-35 8 0 7 -93 -2 -107 -4 -6 -4 -14 1 -17 6 -4 8 -55 2 -63 -1 -2 -2 -12 -2
-23 0 -11 1 -21 2 -22 6 -9 4 -60 -2 -64 -5 -3 -5 -11 -1 -17 16 -26 7 -53
-24 -74 -18 -13 -35 -23 -38 -23 -3 0 -31 -16 -61 -35 -30 -19 -56 -35 -58
-35 -2 0 -59 -32 -127 -72 -68 -39 -137 -79 -154 -87 -16 -9 -31 -19 -33 -23
-2 -5 -10 -8 -18 -8 -8 0 -14 -5 -14 -12 0 -6 -3 -9 -6 -5 -5 5 -45 -17 -129
-71 -11 -6 -27 -15 -35 -19 -8 -4 -32 -17 -53 -31 -22 -13 -60 -35 -85 -49
-26 -15 -60 -34 -77 -44 -16 -10 -52 -30 -80 -44 -27 -15 -57 -33 -66 -41 -8
-8 -19 -14 -22 -14 -4 0 -37 -18 -73 -40 -36 -22 -67 -40 -69 -40 -2 0 -39
-21 -82 -47 -43 -25 -103 -60 -133 -76 -30 -17 -58 -34 -61 -40 -3 -5 -9 -8
-13 -7 -4 1 -24 -9 -44 -21 -20 -13 -57 -34 -82 -47 -25 -14 -57 -33 -72 -43
-14 -11 -28 -19 -31 -19 -5 0 -193 -108 -227 -130 -8 -6 -22 -13 -30 -17 -8
-3 -45 -25 -81 -48 -114 -73 -103 75 -104 -1400 -1 -704 3 -1294 7 -1312 11
-41 51 -89 92 -110 17 -9 33 -19 36 -22 3 -3 19 -13 35 -22 72 -37 120 -64
125 -70 3 -3 40 -25 84 -50 99 -56 128 -72 251 -144 55 -32 109 -63 120 -69
11 -6 22 -13 25 -16 3 -3 16 -11 30 -17 25 -12 52 -27 215 -123 50 -29 110
-64 134 -78 25 -14 68 -38 95 -55 28 -16 69 -40 91 -52 22 -12 96 -55 165 -95
69 -40 143 -84 165 -96 22 -13 47 -27 55 -31 8 -4 43 -24 78 -45 34 -21 66
-38 71 -38 5 0 11 -3 13 -7 3 -8 69 -46 115 -68 13 -5 23 -13 23 -17 0 -5 4
-8 9 -8 7 0 94 -49 200 -111 15 -9 48 -28 72 -41 24 -13 63 -36 86 -51 24 -15
47 -27 51 -27 5 0 21 -9 35 -20 13 -11 47 -31 73 -45 27 -14 67 -37 89 -51 22
-13 47 -27 55 -31 8 -4 43 -24 78 -45 34 -21 67 -38 72 -38 6 0 10 -4 10 -10
0 -5 5 -10 11 -10 6 0 48 -22 94 -50 46 -27 88 -50 94 -50 6 0 11 -4 11 -10 0
-5 6 -10 14 -10 7 0 19 -7 26 -15 6 -8 15 -13 18 -12 4 1 50 -24 102 -54 93
-55 248 -145 420 -244 47 -27 87 -53 88 -57 2 -4 11 -8 21 -8 9 0 21 -4 27
-10 5 -5 77 -49 159 -96 83 -48 168 -97 190 -110 22 -13 57 -32 78 -41 20 -10
37 -21 37 -25 0 -5 7 -8 15 -8 8 0 15 -4 15 -8 0 -4 12 -13 28 -20 15 -6 60
-30 101 -53 42 -23 91 -43 115 -45 58 -6 117 26 147 79 l24 42 0 1290 c1 889
-2 1298 -10 1315 -26 63 -39 73 -192 161 -18 11 -49 28 -68 39 -43 25 -59 34
-260 150 -88 51 -172 99 -187 107 -15 8 -30 18 -33 24 -4 5 -15 9 -26 9 -10 0
-19 4 -19 8 0 5 -10 14 -22 20 -25 12 -58 31 -257 147 -74 42 -149 85 -165 95
-17 10 -119 68 -226 130 -107 62 -205 118 -217 124 -13 6 -23 14 -23 19 0 4
-5 7 -10 7 -8 0 -90 45 -205 113 -11 6 -39 23 -61 36 l-42 25 32 18 c17 10 42
24 56 30 14 7 27 15 30 19 3 3 30 20 60 37 30 16 98 55 150 85 52 31 129 75
170 98 41 24 194 112 339 196 145 84 268 153 272 153 5 0 9 5 9 10 0 6 5 10
11 10 6 0 49 23 97 51 48 29 103 61 122 71 45 26 220 126 240 138 8 5 60 35
115 67 55 32 114 66 130 75 17 10 47 27 68 38 54 30 86 60 106 100 17 33 18
181 16 2590 -1 1821 -4 2562 -12 2580 -6 14 -20 35 -32 47 -22 23 -136 93
-152 93 -5 0 -9 5 -9 10 0 6 -5 10 -10 10 -6 0 -27 11 -48 23 -20 13 -59 37
-87 52 -47 27 -76 43 -214 122 -31 18 -71 41 -88 50 -18 9 -33 20 -33 25 0 4
-9 8 -20 8 -11 0 -20 4 -20 8 0 4 -19 18 -42 30 -49 25 -79 42 -442 252 -146
85 -279 161 -294 169 -15 7 -50 29 -79 47 -28 19 -54 34 -57 34 -3 0 -29 14
-58 31 -29 18 -66 40 -83 49 -16 10 -70 41 -118 69 -49 28 -93 51 -98 51 -5 0
-9 5 -9 10 0 6 -4 10 -9 10 -5 0 -64 32 -132 71 -68 40 -140 81 -159 91 -19
11 -75 44 -125 73 -260 152 -317 185 -326 185 -5 0 -9 4 -9 8 0 4 -12 13 -27
19 -16 7 -58 29 -94 50 -36 21 -154 90 -263 153 -108 63 -221 128 -249 143
-29 16 -63 36 -77 45 -14 9 -41 25 -60 35 -19 11 -87 50 -150 87 -63 37 -135
79 -160 92 -78 44 -244 140 -270 156 -14 9 -28 15 -32 14 -5 -1 -8 2 -8 8 0 6
-4 10 -10 10 -5 0 -39 18 -75 40 -36 22 -69 40 -74 40 -5 0 -11 3 -13 8 -1 4
-20 16 -42 27 -21 11 -57 30 -80 42 -44 24 -94 28 -141 11z m385 -519 c102
-58 202 -116 223 -128 20 -11 53 -30 72 -41 38 -22 32 -18 260 -150 88 -51
185 -106 215 -123 30 -17 57 -33 60 -36 3 -3 30 -19 60 -35 30 -16 62 -34 70
-40 8 -6 24 -16 35 -22 78 -41 211 -120 213 -126 2 -5 8 -8 14 -8 6 0 44 -20
85 -45 40 -25 76 -45 79 -45 2 0 23 -12 47 -27 23 -15 44 -28 47 -28 3 -1 31
-16 63 -35 60 -36 105 -61 167 -96 19 -11 46 -27 60 -36 14 -9 45 -27 70 -41
95 -54 214 -123 239 -137 14 -8 53 -31 86 -50 33 -19 74 -43 90 -53 17 -9 38
-20 48 -23 9 -4 17 -10 17 -15 0 -5 6 -9 14 -9 8 0 22 -7 30 -16 9 -8 16 -13
16 -9 0 4 12 -3 26 -14 15 -12 33 -21 40 -21 8 0 14 -4 14 -10 0 -5 4 -10 10
-10 5 0 33 -14 62 -31 29 -18 68 -40 85 -50 18 -10 119 -69 225 -130 106 -61
298 -172 426 -246 129 -74 248 -143 265 -154 18 -10 41 -23 52 -28 11 -5 37
-21 58 -35 21 -14 42 -26 46 -26 5 0 14 -6 20 -14 9 -11 5 -16 -19 -26 -16 -7
-30 -16 -30 -21 0 -5 -9 -9 -19 -9 -11 0 -22 -4 -26 -9 -7 -12 -213 -131 -226
-131 -5 0 -9 -3 -9 -7 0 -5 -10 -13 -23 -18 -32 -15 -111 -59 -117 -65 -4 -4
-464 -270 -545 -315 -11 -6 -46 -26 -79 -45 -32 -19 -82 -48 -111 -65 -128
-73 -224 -128 -270 -156 -27 -17 -62 -35 -77 -42 -16 -6 -28 -15 -28 -19 0 -4
-7 -8 -15 -8 -8 0 -15 -4 -15 -9 0 -5 -11 -12 -24 -15 -14 -3 -31 -12 -38 -19
-14 -12 -18 -15 -98 -58 -25 -13 -51 -30 -59 -37 -9 -9 -17 -10 -25 -2 -7 5
-15 8 -18 5 -3 -3 -11 1 -18 10 -7 8 -19 15 -26 15 -8 0 -14 3 -14 8 0 4 -15
13 -32 21 -18 8 -35 17 -38 20 -3 3 -25 17 -50 30 -25 13 -52 30 -61 38 -9 7
-19 10 -22 6 -4 -3 -7 -1 -7 5 0 7 -4 12 -9 12 -5 0 -54 26 -108 58 -54 32
-105 61 -113 65 -8 4 -31 17 -50 28 -41 25 -268 157 -320 187 -19 11 -91 52
-158 91 -68 39 -128 71 -133 71 -5 0 -9 5 -9 10 0 6 -4 10 -9 10 -6 0 -60 29
-121 65 -61 36 -130 76 -154 89 -82 46 -91 51 -106 62 -8 7 -37 24 -65 39 -27
14 -63 34 -80 44 -29 18 -70 41 -139 81 -19 10 -82 47 -140 80 -58 34 -111 63
-118 64 -7 1 -18 5 -24 9 -16 9 -92 1 -108 -12 -7 -6 -16 -8 -19 -4 -4 3 -7 2
-7 -4 0 -6 -8 -13 -17 -16 -10 -4 -36 -18 -58 -32 -22 -13 -47 -28 -55 -32 -8
-4 -59 -33 -113 -65 -55 -32 -103 -58 -108 -58 -5 0 -9 -4 -9 -10 0 -5 -5 -10
-10 -10 -11 0 -170 -88 -180 -100 -3 -3 -23 -14 -45 -25 -22 -11 -46 -26 -53
-32 -7 -7 -18 -13 -24 -13 -6 0 -19 -6 -27 -14 -9 -8 -38 -26 -66 -41 -27 -14
-66 -36 -85 -47 -82 -47 -247 -143 -270 -155 -14 -8 -43 -25 -65 -39 -22 -13
-47 -27 -55 -31 -8 -4 -38 -22 -67 -40 -29 -18 -54 -33 -57 -33 -3 0 -35 -18
-71 -40 -36 -22 -67 -40 -69 -40 -9 0 -181 -104 -187 -113 -3 -5 -9 -8 -13 -8
-6 1 -52 -22 -88 -44 -9 -5 -56 -33 -105 -61 -48 -28 -111 -64 -139 -81 l-52
-31 -117 69 c-65 38 -119 69 -120 69 -1 0 -107 61 -235 135 -128 74 -237 135
-241 135 -5 0 -9 4 -9 9 0 5 -8 11 -17 14 -22 7 -118 62 -155 88 -14 10 -29
19 -32 19 -4 0 -76 41 -162 90 -85 50 -176 103 -202 117 -26 14 -54 32 -63 39
-8 8 -19 14 -23 14 -4 0 -57 29 -117 65 -61 36 -112 65 -114 65 -1 0 -44 25
-94 55 -51 30 -96 55 -101 55 -6 0 -10 4 -10 8 0 5 -12 13 -27 18 l-28 10 50
29 c28 16 52 33 53 37 2 4 8 8 13 8 8 0 151 80 234 131 17 11 36 22 43 25 8 4
80 45 160 92 81 47 161 92 177 100 17 9 32 18 35 21 3 3 14 11 25 17 51 28
120 67 235 134 69 40 150 86 180 103 30 17 57 33 60 36 5 6 67 41 135 75 22
12 42 24 45 27 4 4 326 191 465 269 17 9 127 74 246 143 120 69 234 136 255
148 22 12 113 64 204 117 91 52 179 103 197 113 17 10 50 29 72 43 22 15 45
26 49 26 5 0 20 8 33 18 13 11 49 32 79 49 78 42 104 57 110 63 3 3 21 14 40
24 19 11 78 44 130 74 52 30 111 64 130 75 19 11 49 28 65 38 17 11 37 22 45
26 8 4 52 28 97 55 45 26 86 48 92 48 6 0 11 3 11 8 0 4 26 21 58 37 31 17 59
33 62 36 3 4 23 16 45 28 22 11 58 31 80 44 l39 23 71 -39 c38 -22 153 -89
255 -148z m-4430 -2488 c19 -11 41 -24 48 -27 8 -4 80 -45 160 -92 81 -47 170
-97 197 -113 47 -26 178 -102 255 -148 30 -18 92 -54 248 -142 76 -44 100 -58
150 -88 29 -17 57 -31 62 -31 6 0 10 -4 10 -10 0 -5 4 -10 9 -10 5 0 49 -23
98 -51 88 -52 125 -73 186 -108 17 -10 61 -36 97 -57 36 -21 68 -37 73 -36 4
1 7 -2 7 -7 0 -5 12 -14 28 -20 15 -7 50 -24 77 -40 l50 -28 3 -3696 2 -3695
-42 -25 c-24 -14 -61 -35 -83 -47 -22 -13 -53 -31 -70 -41 -16 -10 -52 -30
-80 -45 -27 -14 -62 -35 -77 -45 -14 -11 -28 -19 -31 -19 -3 0 -78 -43 -167
-95 -89 -52 -166 -95 -171 -95 -5 0 -9 -4 -9 -10 0 -5 -4 -10 -9 -10 -9 0 -96
-49 -578 -328 -144 -84 -267 -152 -273 -152 -5 0 -10 -4 -10 -8 0 -9 -37 -29
-54 -30 -5 0 -12 -4 -15 -9 -3 -5 -26 -20 -51 -34 -25 -13 -47 -26 -50 -29 -3
-3 -24 -15 -47 -28 l-43 -23 -1 58 c-1 75 -1 9467 0 9471 1 2 16 -5 34 -16 17
-11 48 -29 67 -41z m8315 -2181 c0 -1505 -3 -2240 -10 -2240 -5 0 -21 9 -35
20 -14 11 -28 20 -32 20 -4 0 -87 47 -185 103 -98 57 -198 115 -223 129 -25
14 -85 48 -133 77 -49 28 -93 51 -98 51 -5 0 -9 5 -9 10 0 6 -4 10 -10 10 -5
0 -39 18 -75 40 -36 22 -68 40 -71 40 -3 0 -18 8 -32 19 -15 10 -49 31 -77 45
-27 15 -63 36 -80 46 -16 11 -43 26 -60 35 -16 8 -48 26 -70 40 -22 14 -47 28
-55 32 -8 4 -43 24 -78 45 -34 21 -67 38 -72 38 -6 0 -10 5 -10 11 0 5 -4 8
-9 4 -5 -3 -12 -1 -15 4 -3 5 -52 35 -108 67 -57 31 -111 65 -122 73 -10 9
-21 15 -25 15 -3 -1 -30 13 -59 30 -29 17 -63 36 -74 43 -28 15 -37 33 -34 66
2 15 -1 27 -6 27 -5 0 -6 6 -1 13 10 16 10 37 1 64 -4 12 -4 24 0 27 9 6 8 48
-1 63 -4 7 -4 14 0 16 10 6 9 199 -1 215 -4 6 -4 12 1 12 10 0 9 132 -1 148
-4 7 -4 17 0 24 10 17 11 58 2 64 -5 3 -5 10 -1 17 9 15 10 177 0 177 -5 0 -5
5 -1 12 11 17 11 108 1 108 -5 0 -5 6 0 13 10 16 10 36 1 63 -4 12 -4 25 -1
28 10 9 10 57 1 62 -5 3 -5 10 -1 17 10 16 10 58 1 63 -5 3 -5 10 -1 17 10 16
10 58 1 63 -5 3 -5 10 -1 17 9 15 10 177 0 177 -5 0 -5 5 -1 12 11 17 11 108
1 108 -5 0 -5 6 0 13 10 16 10 37 1 64 -4 12 -4 24 0 27 9 6 8 48 -1 63 -4 7
-4 14 0 16 10 6 9 199 -1 215 -4 6 -4 12 1 12 10 0 9 132 -1 149 -4 6 -4 17 1
24 5 7 8 26 7 42 -1 17 3 35 8 42 5 6 74 48 154 93 79 45 147 86 150 91 3 5
10 7 15 4 5 -4 9 -2 9 3 0 5 8 12 18 15 9 4 42 21 72 39 31 18 87 51 125 72
39 22 72 43 75 46 3 3 23 15 45 26 22 11 51 27 65 35 29 18 333 194 400 232
25 14 128 73 230 132 102 59 205 119 230 133 25 14 77 44 115 67 39 22 77 44
85 48 11 6 65 36 65 37 0 0 0 -1008 0 -2240z m-1973 -1480 c26 -16 52 -30 57
-30 5 0 16 -6 23 -12 14 -13 27 -21 107 -66 25 -14 63 -36 83 -49 21 -12 39
-23 42 -23 2 0 34 -18 70 -40 36 -22 70 -40 76 -40 5 0 10 -4 10 -10 0 -5 6
-10 14 -10 7 0 25 -9 40 -21 14 -11 26 -18 26 -14 0 4 7 -1 16 -9 8 -9 22 -16
30 -16 8 0 14 -4 14 -9 0 -5 8 -11 18 -14 23 -8 76 -40 80 -49 2 -5 8 -8 12
-8 9 0 88 -43 185 -101 28 -17 58 -33 68 -36 9 -3 17 -9 17 -14 0 -5 4 -9 10
-9 5 0 64 -32 132 -71 67 -40 137 -80 155 -90 109 -62 225 -130 253 -147 14
-9 27 -17 30 -17 3 0 58 -31 122 -69 114 -68 116 -70 95 -85 -12 -9 -35 -23
-52 -31 -16 -8 -32 -17 -35 -20 -3 -3 -57 -35 -120 -72 -63 -36 -133 -76 -155
-89 -22 -12 -62 -35 -90 -51 -27 -16 -66 -38 -85 -50 -19 -11 -129 -74 -245
-140 -115 -67 -217 -127 -226 -134 -9 -8 -18 -12 -21 -9 -3 3 -11 -1 -18 -10
-7 -8 -16 -15 -20 -15 -7 0 -256 -142 -275 -157 -6 -4 -28 -18 -50 -29 -22
-12 -96 -54 -165 -94 -69 -40 -138 -81 -155 -90 -16 -9 -48 -27 -70 -41 -22
-13 -47 -24 -56 -23 -9 1 -44 18 -77 38 -33 20 -65 36 -71 36 -6 0 -11 4 -11
9 0 5 -8 11 -17 14 -24 8 -76 40 -85 52 -4 6 -8 7 -8 3 0 -4 -25 8 -55 27 -30
19 -59 35 -65 35 -5 0 -10 5 -10 10 0 6 -4 10 -10 10 -10 0 -346 192 -367 210
-7 5 -16 10 -21 10 -5 0 -21 9 -34 20 -14 10 -28 17 -30 14 -3 -2 -11 2 -18
11 -7 8 -19 15 -26 15 -8 0 -14 5 -14 10 0 6 -5 10 -10 10 -10 0 -219 118
-230 130 -3 3 -23 14 -45 25 -22 11 -42 22 -45 25 -8 8 -43 28 -80 46 -19 10
-46 25 -60 35 -14 9 -43 27 -65 39 -22 12 -122 69 -222 127 -159 92 -181 108
-165 118 15 11 67 41 137 79 11 6 27 16 35 22 8 7 38 24 65 39 28 14 64 34 80
44 17 10 59 35 95 56 36 21 81 47 100 58 19 11 49 27 65 35 17 9 32 18 35 22
3 4 34 22 70 42 36 19 137 77 225 128 88 52 172 100 187 107 15 8 30 18 33 24
4 5 15 9 25 9 10 0 20 4 22 8 4 10 213 132 227 132 6 0 11 5 11 10 0 6 6 10
14 10 8 0 16 3 18 8 3 6 38 27 123 71 16 9 32 19 35 22 3 3 12 9 20 12 8 4 29
15 45 25 17 10 57 33 90 52 33 18 64 36 70 41 13 12 12 13 67 -21z m-1862
-1448 c14 -9 27 -17 30 -17 3 0 48 -26 100 -56 52 -31 122 -71 155 -90 33 -18
62 -36 65 -39 3 -3 16 -11 30 -18 14 -7 48 -26 75 -42 28 -16 59 -34 70 -40
11 -6 36 -20 55 -32 19 -11 55 -32 80 -46 25 -14 121 -70 214 -124 93 -54 170
-98 172 -98 2 0 33 -18 69 -40 36 -22 70 -40 75 -40 6 0 10 -4 10 -10 0 -5 9
-10 20 -10 11 0 20 -4 20 -10 0 -5 15 -16 33 -24 17 -8 59 -31 92 -51 33 -19
69 -40 80 -45 11 -6 34 -19 50 -29 17 -11 53 -32 80 -46 51 -27 94 -67 78 -72
-10 -4 -9 -55 2 -72 3 -6 3 -11 -2 -11 -10 0 -9 -112 0 -127 4 -7 3 -14 -2
-18 -6 -3 -7 -15 -2 -28 5 -12 5 -31 1 -42 -4 -11 -3 -28 2 -37 5 -10 5 -18 1
-18 -4 0 -8 -18 -8 -40 0 -22 3 -40 7 -40 4 0 3 -12 0 -27 -9 -33 -8 -76 2
-91 3 -6 2 -13 -3 -17 -6 -3 -7 -15 -1 -29 4 -12 4 -29 0 -36 -5 -8 -4 -22 1
-32 7 -12 6 -18 -1 -18 -6 0 -8 -5 -4 -11 6 -10 6 -65 1 -129 -2 -14 1 -33 5
-42 5 -9 4 -19 -2 -23 -5 -3 -6 -15 0 -29 4 -12 4 -29 0 -36 -5 -8 -4 -22 1
-32 6 -12 6 -18 0 -18 -6 0 -8 -6 -5 -14 7 -19 10 -106 3 -106 -7 0 -3 -56 6
-69 3 -6 3 -11 -2 -11 -9 0 -9 -138 0 -147 3 -3 2 -16 -3 -29 -6 -14 -6 -26 0
-29 6 -3 6 -15 0 -30 -6 -16 -6 -27 1 -31 7 -4 7 -10 0 -18 -6 -7 -8 -16 -5
-19 8 -8 9 -116 1 -123 -3 -4 -2 -16 2 -28 5 -11 5 -30 1 -41 -4 -11 -4 -30 1
-42 5 -13 5 -23 1 -23 -9 0 -7 -53 3 -69 3 -6 3 -11 -2 -11 -10 0 -9 -132 1
-148 3 -6 2 -13 -3 -17 -7 -3 -7 -15 -1 -30 6 -15 6 -27 0 -30 -6 -3 -6 -15 0
-30 5 -14 7 -25 4 -25 -5 0 -91 47 -199 110 -16 9 -106 61 -200 115 -93 53
-190 110 -215 125 -25 15 -65 39 -90 52 -70 39 -311 178 -352 205 -21 12 -40
23 -43 23 -2 0 -33 17 -67 38 -35 21 -70 41 -78 45 -8 4 -30 16 -49 28 -39 23
-274 159 -341 197 -25 14 -77 45 -117 69 -39 23 -76 43 -81 43 -37 0 -37 -2
-37 1105 l0 1071 95 -54 c52 -30 106 -62 120 -70z m2026 -1168 c27 -14 54 -30
59 -34 9 -7 29 -18 135 -78 25 -14 73 -42 107 -63 35 -21 72 -40 83 -44 11 -3
20 -11 20 -16 0 -5 4 -9 10 -9 5 0 33 -14 62 -31 29 -18 67 -40 84 -49 16 -10
88 -51 160 -92 183 -106 463 -267 504 -291 19 -10 46 -27 60 -36 14 -9 36 -23
50 -29 14 -7 34 -18 45 -25 11 -7 67 -38 123 -71 56 -32 105 -62 108 -67 3 -5
10 -7 15 -4 5 4 9 0 9 -9 0 -8 -85 -63 -206 -133 -114 -65 -227 -130 -253
-145 -25 -15 -62 -35 -81 -46 -19 -10 -129 -74 -243 -140 -115 -67 -213 -122
-218 -122 -5 0 -9 -4 -9 -10 0 -5 -6 -10 -13 -10 -7 0 -28 -11 -47 -23 -19
-13 -60 -37 -90 -54 -30 -17 -138 -78 -239 -137 -102 -58 -186 -106 -187 -106
-2 0 -20 -11 -40 -25 -57 -39 -65 -34 -63 34 1 32 -1 63 -5 69 -3 6 -2 13 3
17 7 4 7 15 1 30 -6 17 -6 25 1 25 6 0 7 5 3 11 -7 13 -7 189 0 196 3 3 1 16
-4 29 -6 14 -6 26 0 29 6 3 6 15 0 30 -6 17 -6 25 1 25 6 0 7 5 3 11 -7 13 -7
189 0 196 3 3 1 16 -4 29 -6 14 -6 26 0 29 6 3 6 15 0 30 -6 17 -6 25 1 25 6
0 7 5 4 11 -6 8 -7 107 -4 232 0 6 0 21 -1 32 0 11 0 46 2 78 2 31 0 57 -4 57
-4 0 -3 11 2 25 6 15 6 26 -1 30 -6 4 -6 13 0 23 6 10 6 23 0 34 -7 12 -6 18
1 18 6 0 8 5 5 10 -4 6 -6 43 -6 83 2 71 2 86 1 130 0 12 1 33 3 47 2 14 0 35
-5 48 -5 13 -4 22 3 22 6 0 7 5 4 11 -7 11 -8 99 -2 157 2 18 0 35 -5 38 -7 5
-2 24 6 24 2 0 25 -12 52 -26z m1809 -2209 c0 -828 -2 -975 -14 -975 -8 0 -41
17 -75 38 -34 21 -69 41 -78 45 -10 3 -43 22 -73 42 -31 19 -57 35 -59 35 -3
0 -37 19 -78 43 -180 106 -223 132 -228 132 -3 0 -17 8 -32 18 -58 36 -82 50
-137 79 -31 17 -63 37 -72 44 -8 8 -18 14 -22 14 -5 0 -249 139 -297 169 -8 6
-37 22 -65 37 -27 14 -61 34 -75 43 -14 10 -107 64 -207 121 -101 58 -183 108
-183 113 0 5 9 11 20 14 11 3 20 10 20 15 0 5 4 7 9 4 5 -3 14 1 21 9 7 8 19
15 26 15 8 0 14 5 14 10 0 6 4 10 9 10 5 0 48 22 96 50 48 27 91 50 96 50 5 0
9 5 9 10 0 6 4 10 9 10 4 0 58 29 119 64 61 36 131 76 154 89 24 14 84 48 133
77 50 29 135 79 190 110 55 31 145 83 200 115 55 32 170 98 255 148 85 49 171
99 190 111 19 11 37 21 40 21 3 1 21 11 40 23 19 12 37 22 40 22 3 0 5 -439 5
-975z"/>
</g>
</svg>
